<svg xmlns="http://www.w3.org/2000/svg" enable-background="new 0 0 100 100" height="81.329" viewBox="0 0 79.628204 81.328751" width="79.628"><path d="M76.775 35.33H58.5L42.94 1.905c-.63-1.35-2.058-2.08-3.46-1.87-1.404-.212-2.833.532-3.463 1.883L20.455 35.33h-17.6c-1.808 0-3.077 1.412-2.822 3.2L5.675 78.05c.255 1.79 1.942 3.28 3.75 3.28h60.78c1.807 0 3.494-1.517 3.75-3.306l5.64-39.465c.256-1.79-1.013-3.228-2.82-3.228zm-50.46 34.395c0 2.27-2.232 4.105-4.5 4.105s-4.5-1.837-4.5-4.105V50.013c0-2.27 2.23-4.106 4.5-4.106s4.5 1.84 4.5 4.106v19.712zm18 0c0 2.27-2.23 4.105-4.5 4.105s-4.5-1.838-4.5-4.105V50.013c0-2.27 2.23-4.106 4.5-4.106s4.5 1.84 4.5 4.106v19.712zM27.704 35.33l11.772-25.25 11.775 25.25H27.704zm34.61 34.395c0 2.27-2.233 4.105-4.5 4.105s-4.5-1.837-4.5-4.105V50.013c0-2.27 2.23-4.106 4.5-4.106s4.5 1.84 4.5 4.106v19.712z"/></svg>