<svg xmlns="http://www.w3.org/2000/svg" enable-background="new 0 0 100 100" height="67.81" width="64.639" viewBox="5 -10 64.639381 91.543002"><path d="M31.5-9.998C10.656-9.998-6.312 6.94-6.312 27.784c0 20.848 16.968 37.812 37.812 37.812 5.744 0 11.182-1.29 16.062-3.594l16.75 16.75c1.805 1.8 4.187 2.782 6.75 2.782 2.627 0 5.127-1.038 7-2.907 3.82-3.82 3.855-9.99.094-13.75L62.563 49.284c4.237-6.102 6.72-13.522 6.72-21.5 0-20.844-16.94-37.78-37.782-37.78zm0 15.125c12.507 0 22.656 10.15 22.656 22.656 0 12.51-10.15 22.688-22.656 22.688-12.505 0-22.688-10.177-22.688-22.687 0-12.505 10.182-22.656 22.688-22.656z"/></svg>