<svg xmlns:rdf="http://www.w3.org/1999/02/22-rdf-syntax-ns#" xmlns="http://www.w3.org/2000/svg" enable-background="new 0 0 100 100" xml:space="preserve" height="81.329" viewBox="0 0 79.628204 81.328751" width="79.628" version="1.1" y="0px" x="0px" xmlns:cc="http://creativecommons.org/ns#" xmlns:dc="http://purl.org/dc/elements/1.1/"><metadata><rdf:RDF><cc:Work rdf:about=""><dc:format>image/svg+xml</dc:format><dc:type rdf:resource="http://purl.org/dc/dcmitype/StillImage"/><dc:title/></cc:Work></rdf:RDF></metadata><path d="m76.775,35.329h-18.275l-15.561-33.423c-0.629-1.349-2.057-2.08-3.459-1.87-1.404-0.212-2.833,0.532-3.463,1.883l-15.562,33.41h-17.601c-1.807,0-3.076,1.413-2.821,3.202l5.642,39.517c0.255,1.791,1.942,3.281,3.749,3.281h60.781c1.807,0,3.494-1.518,3.75-3.307l5.641-39.465c0.255-1.789-1.014-3.228-2.821-3.228zm-50.461,34.396c0,2.269-2.231,4.105-4.5,4.105s-4.5-1.837-4.5-4.105v-19.712c0-2.269,2.231-4.106,4.5-4.106s4.5,1.839,4.5,4.106v19.712zm18,0c0,2.269-2.23,4.105-4.5,4.105-2.268,0-4.5-1.838-4.5-4.105v-19.712c0-2.269,2.232-4.106,4.5-4.106,2.27,0,4.5,1.839,4.5,4.106v19.712zm-16.61-34.396,11.773-25.248,11.775,25.248h-23.548zm34.61,34.396c0,2.269-2.232,4.105-4.5,4.105s-4.5-1.837-4.5-4.105v-19.712c0-2.269,2.232-4.106,4.5-4.106s4.5,1.839,4.5,4.106v19.712z"/></svg>
