<svg xmlns:rdf="http://www.w3.org/1999/02/22-rdf-syntax-ns#" xmlns="http://www.w3.org/2000/svg" enable-background="new 0 0 100 100" xml:space="preserve" height="67.81" width="64.639" version="1.1" y="0px" x="0px" xmlns:cc="http://creativecommons.org/ns#" xmlns:dc="http://purl.org/dc/elements/1.1/" viewBox="5 -10 64.639381 91.543002"><metadata><rdf:RDF><cc:Work rdf:about=""><dc:format>image/svg+xml</dc:format><dc:type rdf:resource="http://purl.org/dc/dcmitype/StillImage"/><dc:title/></cc:Work></rdf:RDF></metadata><g transform="translate(-13.311892,-13.903999)"><path d="M44.812,3.9062c-20.844,0-37.812,16.938-37.812,37.782,0,20.848,16.968,37.812,37.812,37.812,5.744,0,11.182-1.2908,16.062-3.5938l16.75,16.75c1.805,1.799,4.187,2.7812,6.75,2.7812,2.627,0,5.127-1.0372,7-2.9062,3.82-3.821,3.8548-9.991,0.09375-13.75l-15.593-15.593c4.237-6.102,6.7188-13.522,6.7188-21.5,0-20.844-16.938-37.781-37.781-37.781zm0,15.125c12.507,0,22.656,10.151,22.656,22.656,0,12.509-10.149,22.688-22.656,22.688-12.505,0-22.688-10.178-22.688-22.688,0-12.505,10.182-22.656,22.688-22.656z"/></g></svg>
